<svg xmlns="http://www.w3.org/2000/svg" xmlns:xlink="http://www.w3.org/1999/xlink" width="64" zoomAndPan="magnify" viewBox="0 0 768 767.999994" height="64" preserveAspectRatio="xMidYMid meet" version="1.0"><defs><filter x="0%" y="0%" width="100%" height="100%" id="0d116b24a1"><feColorMatrix values="0 0 0 0 1 0 0 0 0 1 0 0 0 0 1 0 0 0 1 0" color-interpolation-filters="sRGB"/></filter><clipPath id="271ac91c07"><path d="M 43.46875 29.792969 L 721 29.792969 L 721 733 L 43.46875 733 Z M 43.46875 29.792969 " clip-rule="nonzero"/></clipPath><clipPath id="6bf305c63a"><path d="M 599.308594 738.207031 L 168.691406 738.207031 C 99.691406 738.207031 43.46875 681.984375 43.46875 612.984375 L 43.46875 155.015625 C 43.46875 86.015625 99.691406 29.792969 168.691406 29.792969 L 599.308594 29.792969 C 668.308594 29.792969 724.53125 86.015625 724.53125 155.015625 L 724.53125 612.984375 C 724.53125 681.984375 668.308594 738.207031 599.308594 738.207031 " clip-rule="nonzero"/></clipPath><mask id="5552514522"><g filter="url(#0d116b24a1)"><rect x="-76.8" width="921.6" fill="#000000" y="-76.799999" height="921.599993" fill-opacity="0.698"/></g></mask><clipPath id="3c8adbdab8"><path d="M 0.558594 1 L 178 1 L 178 229 L 0.558594 229 Z M 0.558594 1 " clip-rule="nonzero"/></clipPath><clipPath id="d521ebd905"><rect x="0" width="179" y="0" height="230"/></clipPath><mask id="3a2997b836"><g filter="url(#0d116b24a1)"><rect x="-76.8" width="921.6" fill="#000000" y="-76.799999" height="921.599993" fill-opacity="0.4"/></g></mask><clipPath id="52e5ebcde2"><path d="M 1 0.601562 L 455 0.601562 L 455 114 L 1 114 Z M 1 0.601562 " clip-rule="nonzero"/></clipPath><clipPath id="b0383e4c14"><rect x="0" width="456" y="0" height="115"/></clipPath><mask id="1308ff7303"><g filter="url(#0d116b24a1)"><rect x="-76.8" width="921.6" fill="#000000" y="-76.799999" height="921.599993" fill-opacity="0.4"/></g></mask><clipPath id="16ae898f06"><rect x="0" width="182" y="0" height="61"/></clipPath><mask id="793a27e646"><g filter="url(#0d116b24a1)"><rect x="-76.8" width="921.6" fill="#000000" y="-76.799999" height="921.599993" fill-opacity="0.6"/></g></mask><clipPath id="26f2e34dd3"><path d="M 0.320312 1 L 336.800781 1 L 336.800781 177 L 0.320312 177 Z M 0.320312 1 " clip-rule="nonzero"/></clipPath><clipPath id="aae87aa197"><rect x="0" width="337" y="0" height="178"/></clipPath><mask id="0463733d5f"><g filter="url(#0d116b24a1)"><rect x="-76.8" width="921.6" fill="#000000" y="-76.799999" height="921.599993" fill-opacity="0.4"/></g></mask><clipPath id="682ff95b61"><path d="M 1 1 L 344 1 L 344 337.960938 L 1 337.960938 Z M 1 1 " clip-rule="nonzero"/></clipPath><clipPath id="99959429cd"><rect x="0" width="345" y="0" height="338"/></clipPath><mask id="79f80fb944"><g filter="url(#0d116b24a1)"><rect x="-76.8" width="921.6" fill="#000000" y="-76.799999" height="921.599993" fill-opacity="0.4"/></g></mask><clipPath id="16e4da6a56"><path d="M 1 0.71875 L 431 0.71875 L 431 173 L 1 173 Z M 1 0.71875 " clip-rule="nonzero"/></clipPath><clipPath id="723070b993"><rect x="0" width="432" y="0" height="174"/></clipPath><mask id="b574d0db15"><g filter="url(#0d116b24a1)"><rect x="-76.8" width="921.6" fill="#000000" y="-76.799999" height="921.599993" fill-opacity="0.4"/></g></mask><clipPath id="7ccaa17128"><rect x="0" width="424" y="0" height="203"/></clipPath><mask id="9bfdc5180d"><g filter="url(#0d116b24a1)"><rect x="-76.8" width="921.6" fill="#000000" y="-76.799999" height="921.599993" fill-opacity="0.298"/></g></mask><clipPath id="5565b4e7c6"><path d="M 0.359375 1 L 32.761719 1 L 32.761719 32 L 0.359375 32 Z M 0.359375 1 " clip-rule="nonzero"/></clipPath><clipPath id="0597611448"><rect x="0" width="33" y="0" height="33"/></clipPath><mask id="c40699c860"><g filter="url(#0d116b24a1)"><rect x="-76.8" width="921.6" fill="#000000" y="-76.799999" height="921.599993" fill-opacity="0.4"/></g></mask><clipPath id="d067ddf24e"><path d="M 0.398438 1 L 31.839844 1 L 31.839844 32 L 0.398438 32 Z M 0.398438 1 " clip-rule="nonzero"/></clipPath><clipPath id="3697ccc68f"><rect x="0" width="32" y="0" height="33"/></clipPath></defs><rect x="-76.8" width="921.6" fill="#ffffff" y="-76.799999" height="921.599993" fill-opacity="1"/><rect x="-76.8" width="921.6" fill="#ffffff" y="-76.799999" height="921.599993" fill-opacity="1"/><rect x="-76.8" width="921.6" fill="#ffffff" y="-76.799999" height="921.599993" fill-opacity="1"/><g clip-path="url(#271ac91c07)"><g clip-path="url(#6bf305c63a)"><path fill="#44403c" d="M 43.46875 29.792969 L 720.699219 29.792969 L 720.699219 732.582031 L 43.46875 732.582031 Z M 43.46875 29.792969 " fill-opacity="1" fill-rule="nonzero"/></g></g><path fill="#f3dc51" d="M 559.699219 241.640625 C 559.699219 241.640625 563.722656 299.957031 547.625 312.019531 C 531.527344 324.085938 412.800781 443.734375 412.800781 443.734375 L 434.9375 468.871094 L 578.816406 371.34375 L 589.882812 243.652344 Z M 559.699219 241.640625 " fill-opacity="1" fill-rule="evenodd"/><g mask="url(#5552514522)"><g transform="matrix(1, 0, 0, 1, 412, 240)"><g clip-path="url(#d521ebd905)"><g clip-path="url(#3c8adbdab8)"><path fill="#000000" d="M 147.695312 1.640625 C 147.695312 1.640625 151.722656 59.957031 135.621094 72.019531 C 119.523438 84.085938 0.800781 203.734375 0.800781 203.734375 L 22.933594 228.871094 L 166.8125 131.34375 L 177.878906 3.652344 Z M 147.695312 1.640625 " fill-opacity="1" fill-rule="evenodd"/></g></g></g></g><path fill="#f3dc51" d="M 554.433594 203.433594 L 517.683594 258.53125 C 517.683594 258.53125 488.242188 265.835938 473.320312 275.109375 C 458.398438 284.378906 411.507812 318.59375 307.761719 311.253906 C 204.015625 303.914062 188.605469 281.761719 166.125 280.949219 C 143.648438 280.136719 109.644531 284.042969 101.402344 290.3125 C 93.160156 296.585938 103.015625 315.480469 103.015625 315.480469 C 103.015625 315.480469 133.167969 383.246094 242.929688 411.050781 C 352.691406 438.855469 482.632812 381.449219 482.632812 381.449219 L 573.382812 214.917969 L 554.4375 203.433594 Z M 554.433594 203.433594 " fill-opacity="1" fill-rule="evenodd"/><g mask="url(#3a2997b836)"><g transform="matrix(1, 0, 0, 1, 99, 207)"><g clip-path="url(#b0383e4c14)"><g clip-path="url(#52e5ebcde2)"><path fill="#ffffff" d="M 452.515625 0.816406 L 418.683594 51.53125 C 418.683594 51.53125 389.242188 58.847656 374.320312 68.121094 C 359.398438 77.390625 312.523438 111.59375 208.78125 104.253906 C 105.035156 96.914062 89.613281 74.773438 67.132812 73.964844 C 44.65625 73.152344 10.667969 77.054688 2.425781 83.328125 C 2.054688 83.613281 1.722656 83.9375 1.421875 84.269531 C 20.824219 81.457031 49.429688 82.027344 69.554688 85.683594 C 108.183594 92.699219 143.605469 116.089844 233.679688 113.648438 C 361.691406 110.140625 376.710938 70.289062 394.539062 65.574219 C 419.320312 59.023438 466.082031 49.417969 452.519531 0.816406 Z M 452.515625 0.816406 " fill-opacity="1" fill-rule="evenodd"/></g></g></g></g><g mask="url(#1308ff7303)"><g transform="matrix(1, 0, 0, 1, 137, 358)"><g clip-path="url(#16ae898f06)"><path fill="#000000" d="M 1.949219 1.335938 C 23.613281 20.144531 56.761719 40.605469 105.921875 53.058594 C 117.757812 56.058594 129.839844 58.046875 141.957031 59.242188 L 180.90625 51.351562 C 116.222656 61.472656 37.511719 21.929688 1.945312 1.335938 Z M 1.949219 1.335938 " fill-opacity="1" fill-rule="evenodd"/></g></g></g><path fill="#f3dc51" d="M 562.71875 242.644531 C 562.71875 242.644531 583.847656 297.945312 577.808594 312.019531 C 571.773438 326.097656 536.558594 406.53125 471.160156 436.695312 C 405.757812 466.859375 237.734375 462.839844 233.710938 454.792969 C 229.683594 446.75 233.710938 531.207031 335.328125 562.378906 C 436.949219 593.546875 566.832031 525.269531 589.882812 503.054688 C 619.0625 474.902344 674.398438 402.511719 658.300781 348.21875 C 642.203125 293.921875 630.128906 310.011719 621.074219 294.929688 C 612.019531 279.847656 601.957031 250.6875 601.957031 238.625 C 601.957031 226.558594 563.722656 242.644531 562.71875 242.644531 Z M 562.71875 242.644531 " fill-opacity="1" fill-rule="evenodd"/><g mask="url(#793a27e646)"><g transform="matrix(1, 0, 0, 1, 232, 331)"><g clip-path="url(#aae87aa197)"><g clip-path="url(#26f2e34dd3)"><path fill="#000000" d="M 336.332031 1.117188 C 321.046875 30.925781 288.820312 82.773438 239.144531 105.683594 C 173.746094 135.847656 5.722656 131.824219 1.695312 123.78125 C 0.691406 121.769531 0.203125 125.558594 1.601562 132.832031 L 1.632812 132.957031 L 3.710938 139.871094 C 3.710938 139.871094 3.546875 139.882812 3.332031 139.964844 C 3.4375 140.328125 3.566406 140.722656 3.675781 141.09375 C 3.824219 141.585938 3.957031 142.0625 4.117188 142.570312 C 4.40625 143.484375 4.757812 144.441406 5.09375 145.398438 C 5.203125 145.722656 5.289062 146.046875 5.40625 146.375 C 5.632812 147.003906 5.914062 147.640625 6.160156 148.289062 C 6.445312 149.035156 6.699219 149.785156 7.011719 150.550781 C 7.230469 151.097656 7.496094 151.660156 7.734375 152.21875 C 8.050781 152.960938 8.363281 153.6875 8.707031 154.449219 C 8.871094 154.8125 9.042969 155.183594 9.210938 155.546875 C 10.308594 157.921875 11.515625 160.367188 12.890625 162.867188 C 12.925781 162.933594 12.980469 162.992188 13.015625 163.058594 C 13.03125 163.085938 13.03125 163.121094 13.046875 163.152344 C 13.410156 163.808594 13.792969 164.464844 14.179688 165.132812 C 14.214844 165.191406 14.238281 165.257812 14.273438 165.320312 C 14.679688 166.019531 15.101562 166.71875 15.53125 167.425781 C 15.988281 168.179688 16.460938 168.957031 16.945312 169.71875 L 16.976562 169.75 C 17.441406 170.480469 17.902344 171.214844 18.390625 171.949219 L 18.425781 171.949219 C 59.472656 189.949219 205.03125 155.421875 270.335938 107.695312 C 316.308594 74.097656 331.386719 27.417969 336.332031 1.117188 Z M 336.332031 1.117188 " fill-opacity="1" fill-rule="evenodd"/></g></g></g></g><g mask="url(#0463733d5f)"><g transform="matrix(1, 0, 0, 1, 318, 233)"><g clip-path="url(#99959429cd)"><g clip-path="url(#682ff95b61)"><path fill="#000000" d="M 276.570312 1.128906 C 274.945312 1.15625 273.132812 1.375 271.222656 1.695312 C 277.535156 21.054688 307.792969 115.28125 305.085938 133.316406 C 302.066406 153.425781 270.039062 226.523438 217.550781 257.992188 C 182.335938 279.109375 105.871094 312.289062 78.703125 317.316406 C 61.511719 320.496094 27.867188 325.175781 1.578125 323.820312 C 6.554688 325.8125 11.785156 327.679688 17.328125 329.378906 C 118.949219 360.546875 248.832031 292.273438 271.882812 270.058594 C 301.0625 241.90625 356.398438 169.515625 340.300781 115.21875 C 324.203125 60.925781 312.128906 77.011719 303.074219 61.929688 C 294.019531 46.847656 283.957031 17.691406 283.957031 5.625 C 283.957031 2.234375 280.9375 1.054688 276.570312 1.132812 Z M 276.570312 1.128906 " fill-opacity="1" fill-rule="evenodd"/></g></g></g></g><path fill="#f3dc51" d="M 567.746094 252.699219 C 567.746094 252.699219 548.628906 271.804688 553.660156 289.902344 C 558.691406 308 575.792969 352.238281 512.40625 402.511719 C 449.019531 452.785156 264.898438 540.257812 141.140625 444.738281 C 105.925781 404.523438 126.050781 378.378906 126.050781 378.378906 C 126.050781 378.378906 146.160156 375.476562 154.222656 376.371094 C 164.28125 373.351562 211.570312 376.371094 255.839844 378.378906 C 315.113281 377.214844 477.191406 301.964844 508.382812 272.808594 C 508.382812 272.808594 546.617188 226.558594 547.621094 218.515625 C 548.628906 210.472656 574.789062 234.601562 575.792969 241.640625 C 576.800781 248.679688 567.746094 251.695312 567.746094 252.699219 Z M 567.746094 252.699219 " fill-opacity="1" fill-rule="evenodd"/><g mask="url(#79f80fb944)"><g transform="matrix(1, 0, 0, 1, 124, 216)"><g clip-path="url(#723070b993)"><g clip-path="url(#16e4da6a56)"><path fill="#ffffff" d="M 425.089844 0.894531 C 424.277344 0.992188 423.738281 1.492188 423.613281 2.5 C 422.609375 10.542969 384.375 56.792969 384.375 56.792969 C 353.183594 85.949219 191.105469 161.199219 131.832031 162.363281 C 87.5625 160.351562 40.273438 157.335938 30.210938 160.351562 C 22.148438 159.457031 2.039062 162.363281 2.039062 162.363281 C 2.039062 162.363281 1.671875 162.894531 1.128906 163.808594 C 12.15625 167.035156 32.21875 171.527344 64.671875 172.386719 C 139.519531 174.375 170.949219 170.3125 235.847656 145.050781 C 303.890625 118.5625 395.140625 84.523438 430.917969 3.222656 C 428.492188 1.675781 426.410156 0.742188 425.101562 0.898438 Z M 425.089844 0.894531 " fill-opacity="1" fill-rule="evenodd"/></g></g></g></g><g mask="url(#b574d0db15)"><g transform="matrix(1, 0, 0, 1, 137, 286)"><g clip-path="url(#7ccaa17128)"><path fill="#000000" d="M 416.097656 1.136719 C 407.859375 29.425781 374.527344 104.273438 246.621094 147.679688 C 90.214844 200.761719 52.113281 170.238281 1.59375 155.691406 C 2.421875 156.695312 3.246094 157.71875 4.140625 158.738281 C 127.898438 254.257812 312.023438 166.785156 375.410156 116.511719 C 438.796875 66.238281 421.691406 22 416.660156 3.902344 C 416.40625 2.980469 416.230469 2.058594 416.09375 1.136719 Z M 416.097656 1.136719 " fill-opacity="1" fill-rule="evenodd"/></g></g></g><path fill="#884a13" d="M 569.082031 195.167969 C 563.296875 193.660156 543.167969 209.550781 543.523438 214.871094 C 543.875 220.183594 563.109375 237.40625 575.289062 241.570312 C 579.316406 242.574219 601.449219 240.5625 602.457031 236.542969 C 603.460938 232.519531 603.460938 215.425781 599.4375 211.40625 C 595.414062 207.382812 575.816406 196.921875 569.082031 195.167969 Z M 569.082031 195.167969 " fill-opacity="1" fill-rule="evenodd"/><path fill="#884a13" d="M 569.082031 195.167969 C 563.296875 193.660156 543.167969 209.550781 543.523438 214.871094 C 543.875 220.183594 563.109375 237.40625 575.289062 241.570312 C 579.316406 242.574219 601.449219 240.5625 602.457031 236.542969 C 603.460938 232.519531 603.460938 215.425781 599.4375 211.40625 C 595.414062 207.382812 575.816406 196.921875 569.082031 195.167969 Z M 569.082031 195.167969 " fill-opacity="1" fill-rule="evenodd"/><g mask="url(#9bfdc5180d)"><g transform="matrix(1, 0, 0, 1, 543, 194)"><g clip-path="url(#0597611448)"><g clip-path="url(#5565b4e7c6)"><path fill="#ffffff" d="M 24.847656 1.078125 C 17.867188 1.601562 0.207031 15.886719 0.542969 20.871094 C 0.683594 23.011719 3.902344 27.0625 8.464844 31.429688 C 8.753906 23.046875 12.914062 10.882812 32.328125 3.527344 C 29.816406 2.414062 27.628906 1.570312 26.105469 1.171875 C 25.742188 1.078125 25.3125 1.042969 24.847656 1.078125 Z M 24.847656 1.078125 " fill-opacity="1" fill-rule="evenodd"/></g></g></g></g><g mask="url(#c40699c860)"><g transform="matrix(1, 0, 0, 1, 572, 210)"><g clip-path="url(#3697ccc68f)"><g clip-path="url(#d067ddf24e)"><path fill="#000000" d="M 27.378906 1.347656 C 27.53125 19.703125 11.75 27.445312 0.839844 30.597656 C 1.683594 30.96875 2.503906 31.304688 3.292969 31.570312 C 7.320312 32.578125 29.453125 30.566406 30.460938 26.546875 C 31.464844 22.523438 31.464844 5.429688 27.441406 1.410156 Z M 27.378906 1.347656 " fill-opacity="1" fill-rule="evenodd"/></g></g></g></g></svg>